<?xml version="1.0" encoding="UTF-8" standalone="no"?>
<svg
   xmlns:dc="http://purl.org/dc/elements/1.1/"
   xmlns:cc="http://creativecommons.org/ns#"
   xmlns:rdf="http://www.w3.org/1999/02/22-rdf-syntax-ns#"
   xmlns:svg="http://www.w3.org/2000/svg"
   xmlns="http://www.w3.org/2000/svg"
   id="svg8"
   version="1.1"
   viewBox="0 0 153.72293 29.101521"
   height="29.101521mm"
   width="153.72293mm">
  <defs
     id="defs2" />
  <metadata
     id="metadata5">
    <rdf:RDF>
      <cc:Work
         rdf:about="">
        <dc:format>image/svg+xml</dc:format>
        <dc:type
           rdf:resource="http://purl.org/dc/dcmitype/StillImage" />
        <dc:title></dc:title>
      </cc:Work>
    </rdf:RDF>
  </metadata>
  <g
     transform="translate(-27.837946,-125.21114)"
     id="layer1">
    <path
       style="fill:#808285;stroke-width:0.26458332"
       class="st0"
       d="m 181.56087,147.95208 c 0,3.51367 -2.84956,6.36058 -6.36059,6.36058 H 34.198529 c -3.513667,0 -6.360583,-2.84691 -6.360583,-6.36058 v -16.38035 c 0,-3.51367 2.846916,-6.36059 6.360583,-6.36059 H 175.19764 c 3.51367,0 6.36058,2.84692 6.36058,6.36059 v 16.38035 z M 68.081071,141.43539 c 0,4.53761 3.090333,5.04561 5.791729,5.04561 h 3.765021 c 3.862916,0 6.201833,-0.84667 6.201833,-3.66977 v -0.24078 h -2.074333 c -0.119063,1.88119 -1.182688,2.21986 -3.788834,2.21986 h -2.846916 c -3.6195,0 -4.971521,-0.72496 -4.971521,-3.52425 V 140.639 h 13.681604 v -1.52136 c 0,-4.39208 -2.677583,-5.334 -6.394979,-5.334 h -3.331104 c -2.942167,0 -6.0325,0.508 -6.0325,4.97152 z m 13.68425,-2.6326 H 70.15805 c 0.193146,-2.79929 0.965729,-3.33111 4.246562,-3.33111 h 3.040063 c 3.378729,0 4.320646,1.25413 4.320646,2.5109 z m 4.926541,2.68023 c 0,4.05606 2.873375,4.99533 6.807729,4.99533 h 2.968625 c 3.934354,0 6.805084,-0.94192 6.805084,-4.99533 v -2.70404 c 0,-4.05342 -2.87073,-4.99534 -6.805084,-4.99534 h -2.968625 c -3.934354,0 -6.807729,0.94192 -6.807729,4.99534 z m 14.504458,-0.12171 c 0,2.87337 -1.688041,3.42635 -4.103687,3.42635 h -4.22275 c -2.413,0 -4.103687,-0.55298 -4.103687,-3.42635 v -2.46327 c 0,-2.87073 1.690687,-3.42636 4.103687,-3.42636 h 4.22275 c 2.413,0 4.103687,0.55563 4.103687,3.42636 z m 45.98194,4.92389 v -8.255 c 0,-3.66977 -2.60614,-4.2492 -6.46906,-4.2492 h -3.28348 c -3.71739,0 -5.14085,0.9181 -5.14085,3.16177 v 0.60325 h 2.07433 v -0.43392 c 0,-1.01335 0.508,-1.64042 3.11415,-1.64042 h 3.04006 c 3.18558,0 4.58523,0.2884 4.58523,2.5109 v 2.31775 h -0.0476 c -0.72495,-1.18269 -1.69068,-1.47108 -4.39208,-1.47108 h -3.3311 c -3.6195,0 -5.59859,0.33866 -5.59859,3.13795 v 0.82021 c 0,2.31775 0.82021,3.69359 3.95817,3.69359 h 4.97152 z m -2.07433,-3.30729 c 0,1.54517 -1.44727,1.80975 -5.21229,1.80975 h -2.75167 c -2.84691,0 -3.3311,-0.57943 -3.3311,-1.95527 v -0.38629 c 0,-1.54517 0.74877,-1.93146 3.42635,-1.93146 h 3.18559 c 3.18558,0 4.68312,0.21696 4.68312,1.905 z m -99.734693,-2.32833 h 2.878667 l 1.330854,0.003 h 12.877271 v 0.63765 c 0,2.413 -1.447271,3.23585 -3.812646,3.23585 h -9.244542 c -2.270125,0 -4.103687,-0.67469 -4.103687,-3.7174 v -0.0926 -0.0688 z m -2.423583,-0.003 c 0,0.0159 0,0.037 0,0.0529 0.177271,3.88408 1.767417,5.75733 6.209771,5.75733 h 9.749896 c 4.36827,0 5.913437,-1.69068 5.913437,-6.44525 v -1.29121 h -15.24 l -1.090083,-0.003 h -3.193521 v -0.003 -4.47146 c 0,-3.04006 1.833562,-3.7174 4.103687,-3.7174 h 6.130396 c 5.839354,0 6.828896,0.24077 6.828896,3.50044 h 2.219854 v -0.62706 c 0,-4.02961 -3.354916,-4.80219 -6.492875,-4.80219 h -8.927041 c -4.73075,0 -6.225646,2.12461 -6.225646,6.5405 v 3.57981 l -0.0026,0.003 h -5.233458 c -3.137959,0 -6.492875,0.77259 -6.492875,4.80219 v 0.62706 1.32821 0.62706 c 0,4.03225 3.354916,4.80484 6.492875,4.80484 h 10.792354 114.456109 9.00378 c 4.73075,0 6.22829,-2.12461 6.22829,-6.5405 v -9.22602 c 0,-4.4159 -1.4949,-6.5405 -6.22829,-6.5405 l -0.0423,-0.005 h -59.00218 c -4.73075,0 -6.22564,2.1246 -6.22564,6.5405 v 4.77837 c 0,4.4159 1.49489,6.5405 6.22564,6.5405 h 9.7499 c 4.36828,0 5.91344,-1.69069 5.91344,-6.44525 v -1.29121 h -11.31888 v 1.93146 h 8.95351 v 0.63764 c 0,2.413 -1.44728,3.23586 -3.81265,3.23586 h -9.24454 c -2.27013,0 -4.10105,-0.67469 -4.10105,-3.7174 v -6.56431 c 0,-3.04006 1.83357,-3.7174 4.10105,-3.7174 l 37.70313,0.005 v 16.20309 l 6.4426,0.19314 h 2.89719 c 3.76502,0 6.39762,-0.94191 6.39762,-5.18848 v -2.17223 c 0,-3.93435 -1.52135,-5.334 -6.51669,-5.334 h -3.16177 -3.937 -0.045 l -0.005,-3.70681 h 18.98386 l -0.19844,0.005 c 2.27012,0 4.10369,0.67469 4.10369,3.71475 v 11.01196 c 0,3.04006 -1.83357,3.7174 -4.10369,3.7174 H 163.20672 48.880258 40.254841 c -5.842,0 -6.828895,-0.24078 -6.828895,-3.50044 v -1.32821 c 0,-3.25702 0.989541,-3.50044 6.828895,-3.50044 h 2.6035 z m 121.562816,1.06892 c 0,2.38918 -0.74877,3.52425 -4.1275,3.52425 h -3.37873 c -3.08768,0 -4.07987,-1.3044 -4.07987,-3.54807 v -2.34156 c 0,-2.94481 1.7145,-3.42635 4.51379,-3.42635 h 2.79929 c 2.84692,0 4.27038,0.53181 4.27038,3.37873 v 2.413 z"
       id="path23" />
  </g>
  <style
     type="text/css"
     id="style21">
	.st0{fill:#808285;}
</style>
</svg>
